<?xml version="1.0" encoding="utf-8"?>
<!-- Generator: Adobe Illustrator 28.2.0, SVG Export Plug-In . SVG Version: 6.00 Build 0)  -->
<svg version="1.1" id="Layer_1" xmlns="http://www.w3.org/2000/svg" xmlns:xlink="http://www.w3.org/1999/xlink" x="0px" y="0px"
	 viewBox="0 0 512 512" style="enable-background:new 0 0 512 512;" xml:space="preserve">
<style type="text/css">
	.st0{fill:#FFFFFF;}
</style>
<g>
	<path d="M356.2,132l0.8,141.4c-0.3,18.3,1.1,46.4,9.2,55.3c22.4,31.1,68.1-9.2,64.6-96.9c-3.7-106-78-185.7-169.7-179.3
		c-104.5,7.3-182,102.6-177.6,218c6.2,164.3,126.6,233.2,273.1,157l13.6,49.4c-171.5,91.9-327.9-3.5-334.4-203
		C30.5,129.6,129.2,9.6,259.1,0.5c118.2-8.3,213.1,91.4,217.2,226.3c5.2,181.3-138.8,193.9-154.4,108.9
		c-10.5,32.2-43.3,58.4-79.4,60.9c-68.4,4.8-103.4-53.8-101.4-123.7c1.5-69.9,35.4-134.5,103.8-139.3c30.8-2.2,56.1,9.9,69.3,31.6
		l0-30.2L356.2,132z M251.2,353.1c44.5-3.1,62.7-47.8,63.3-92.5c0.5-45.9-17.3-88.1-61.9-85c-44.5,3.1-62.2,47.1-63.3,93.7
		C189.4,314.7,206.7,356.3,251.2,353.1z"/>
</g>
</svg>
